<?xml version="1.0" encoding="UTF-8"?>
<svg width="240px" height="240px" version="1.1" viewBox="0 0 48 48" xmlns="http://www.w3.org/2000/svg">
<linearGradient id="a" x1="9.993" x2="40.615" y1="9.993" y2="40.615" gradientTransform="matrix(1.1993 0 0 1.1993 -4.7528 -4.7528)" gradientUnits="userSpaceOnUse">
<stop stop-color="#2aa4f4" offset="0"/>
<stop stop-color="#007ad9" offset="1"/>
</linearGradient>
<path d="m24.03 0.04428c-13.247 0-23.985 10.738-23.985 23.985s10.738 23.985 23.985 23.985 23.985-10.738 23.985-23.985-10.738-23.985-23.985-23.985z" fill="url(#a)" stroke-width="1.1993"/>
<path d="m27.276 30.387h6.2074l0.975-6.3057h-7.1824v-3.4467c0-2.6192 0.85627-4.9422 3.3064-4.9422h3.9372v-5.5022c-0.69197-0.09354-2.1551-0.29742-4.9194-0.29742-5.7732 0-9.1576 3.0485-9.1576 9.9947v4.195h-5.9351v6.3057h5.9339v17.332c1.1753 0.17509 2.3661 0.29502 3.5882 0.29502 1.1045 0 2.1827-0.10073 3.2464-0.24465z" fill="#fff" stroke-width="1.1993"/>
</svg>