<?xml version="1.0" encoding="UTF-8"?>
<svg fill="none" viewBox="0 0 32 32" xmlns="http://www.w3.org/2000/svg">
<path d="m31.397 20.605h-3.8318c-5.8355 0-9.3668-2.0286-11.32-5.2344-0.4758-0.7763-1.6529-3.1807-1.6529-3.1807-0.2254-0.4007 0.0751-0.9016 0.551-0.9016h16.229c0.3506 0 0.6261-0.2755 0.6261-0.6261 0-5.8104-5.3846-8.6906-11.696-8.6906h-19.685c-0.47585 0-0.75135 0.5009-0.55099 0.90162l3.907 7.4885c0.22541 0.4007-0.07513 0.9016-0.55099 0.9016h-2.805c-0.47585 0-0.75135 0.5009-0.55099 0.9016l3.907 7.4884c0.22541 0.4008-0.07513 0.9017-0.55099 0.9017h-2.805c-0.47585 0-0.75135 0.5009-0.55099 0.9016 0 0 1.2272 2.4794 1.8032 3.4812 1.8283 3.0805 5.8104 4.9339 11.621 4.9339h17.882c0.3506 0 0.6261-0.2755 0.6261-0.6262v-8.0644c0.0251-0.2755-0.2504-0.5761-0.6011-0.5761zm-17.406-12.673c0-1.678 1.3775-3.0555 3.0555-3.0555s3.0555 1.3524 3.0555 3.0555c0 0.20036-0.1753 0.30054-0.3256 0.30054h-5.4348c-0.1753-0.02505-0.3506-0.12523-0.3506-0.30054z" fill="#E40521"/>
</svg>
