<?xml version="1.0" encoding="UTF-8"?>
<svg version="1.1" viewBox="0 0 28.87 28.87" xmlns="http://www.w3.org/2000/svg">
<defs>
<linearGradient id="a" x1="-1.84" x2="32.16" y1="30.47" y2="-3.03" gradientUnits="userSpaceOnUse">
<stop stop-color="#fed576" offset="0"/>
<stop stop-color="#f47133" offset=".26"/>
<stop stop-color="#bc3081" offset=".61"/>
<stop stop-color="#4c63d2" offset="1"/>
</linearGradient>
</defs>
<g data-name="Layer 2">
<g data-name="Layer 1">
<rect width="28.87" height="28.87" rx="14.435" ry="14.435" fill="url(#a)"/>
<g fill="#fff" data-name="Group">
<path d="M10 5h9c.2.1.5.1.7.2a4.78 4.78 0 0 1 3.8 3.3 8 8 0 0 1 .3 1.5v8.8a6.94 6.94 0 0 1-1.2 3.1 5.51 5.51 0 0 1-4.5 1.9h-7.5a5.49 5.49 0 0 1-3.7-1.2A5.51 5.51 0 0 1 5 18.14v-7a7.57 7.57 0 0 1 .1-1.5 4.9 4.9 0 0 1 3.8-4.3zm-3.1 9.5v3.9a3.42 3.42 0 0 0 3.7 3.7q3.9.15 7.8 0c2.3 0 3.6-1.4 3.7-3.7q.15-3.9 0-7.8a3.52 3.52 0 0 0-3.7-3.7q-3.9-.15-7.8 0a3.42 3.42 0 0 0-3.7 3.7z" data-name="Compound Path"/>
<path d="m9.64 14.54a4.91 4.91 0 0 1 4.9-4.9 5 5 0 0 1 4.9 4.9 4.91 4.91 0 0 1-4.9 4.9 5 5 0 0 1-4.9-4.9zm4.9-3.1a3.05 3.05 0 1 0 3 3 3 3 0 0 0-3-3z" data-name="Compound Path"/>
<path d="m18.34 9.44a1.16 1.16 0 0 1 1.2-1.2 1.29 1.29 0 0 1 1.2 1.2 1.2 1.2 0 0 1-2.4 0z" data-name="Path"/>
</g>
</g>
</g>
</svg>
