<?xml version="1.0" encoding="UTF-8" standalone="no"?>
<svg
   viewBox="0 0 28.87 28.87"
   id="instagram"
   version="1.1"
   sodipodi:docname="instagram2.svg"
   inkscape:version="1.3.2 (091e20e, 2023-11-25, custom)"
   xmlns:inkscape="http://www.inkscape.org/namespaces/inkscape"
   xmlns:sodipodi="http://sodipodi.sourceforge.net/DTD/sodipodi-0.dtd"
   xmlns="http://www.w3.org/2000/svg"
   xmlns:svg="http://www.w3.org/2000/svg">
  <sodipodi:namedview
     id="namedview8"
     pagecolor="#505050"
     bordercolor="#ffffff"
     borderopacity="1"/>
  <defs
     id="defs4">
    <linearGradient
       id="a"
       x1="-1.84"
       x2="32.16"
       y1="30.47"
       y2="-3.03"
       gradientUnits="userSpaceOnUse">
      <stop
         offset="0"
         stop-color="#fed576"
         id="stop1" />
      <stop
         offset=".26"
         stop-color="#f47133"
         id="stop2" />
      <stop
         offset=".61"
         stop-color="#bc3081"
         id="stop3" />
      <stop
         offset="1"
         stop-color="#4c63d2"
         id="stop4" />
    </linearGradient>
  </defs>
  <g
     data-name="Layer 2"
     id="g8">
    <g
       data-name="Layer 1"
       id="g7">
      <rect
         width="28.870001"
         height="28.870001"
         fill="url(#a)"
         rx="14.435"
         ry="14.435"
         id="rect4"
         inkscape:label="rect4"
         x="0"
         y="0" />
      <g
         data-name="Group"
         id="g6">
        <path
           fill="#fff"
           d="M10 5h9c.2.1.5.1.7.2a4.78 4.78 0 0 1 3.8 3.3 8 8 0 0 1 .3 1.5v8.8a6.94 6.94 0 0 1-1.2 3.1 5.51 5.51 0 0 1-4.5 1.9h-7.5a5.49 5.49 0 0 1-3.7-1.2A5.51 5.51 0 0 1 5 18.14v-7a7.57 7.57 0 0 1 .1-1.5 4.9 4.9 0 0 1 3.8-4.3zm-3.1 9.5v3.9a3.42 3.42 0 0 0 3.7 3.7q3.9.15 7.8 0c2.3 0 3.6-1.4 3.7-3.7q.15-3.9 0-7.8a3.52 3.52 0 0 0-3.7-3.7q-3.9-.15-7.8 0a3.42 3.42 0 0 0-3.7 3.7z"
           data-name="Compound Path"
           id="path4" />
        <path
           fill="#fff"
           d="M9.64 14.54a4.91 4.91 0 0 1 4.9-4.9 5 5 0 0 1 4.9 4.9 4.91 4.91 0 0 1-4.9 4.9 5 5 0 0 1-4.9-4.9zm4.9-3.1a3.05 3.05 0 1 0 3 3 3 3 0 0 0-3-3z"
           data-name="Compound Path"
           id="path5" />
        <path
           fill="#fff"
           d="M18.34 9.44a1.16 1.16 0 0 1 1.2-1.2 1.29 1.29 0 0 1 1.2 1.2 1.2 1.2 0 0 1-2.4 0z"
           data-name="Path"
           id="path6" />
      </g>
    </g>
  </g>
</svg>
