<?xml version="1.0" encoding="UTF-8"?>
<svg enable-background="new 0 0 64 64" version="1.1" viewBox="0 0 64 64" xml:space="preserve" xmlns="http://www.w3.org/2000/svg">
<style type="text/css">
	.st0{fill: #32a9dc;}
	.st1{opacity:0.5;}
	.st2{fill:#231F20;}
	.st3{fill:#E0E0D1;}
	.st4{fill:#FFFFFF;}
</style>

	
		<circle class="st0" cx="32" cy="32" r="32"/>
	
	
		<g class="st1">
			<path class="st2" d="M52,44c0,2.2-1.8,4-4,4H16c-2.2,0-4-1.8-4-4V24c0-2.2,1.8-4,4-4h32c2.2,0,4,1.8,4,4V44z"/>
		</g>
		
			<path class="st3" d="M52,42c0,2.2-1.8,4-4,4H16c-2.2,0-4-1.8-4-4V22c0-2.2,1.8-4,4-4h32c2.2,0,4,1.8,4,4V42z"/>
		
		<g class="st1">
			
				<path class="st2" d="m35.5 30.2c-1.9-2.1-5.1-2.1-7 0l-15.5 13c-0.2 0.2-0.3 0.4-0.5 0.6 0.7 1.3 2 2.2 3.4 2.2h32c1.5 0 2.7-0.9 3.4-2.2-0.1-0.2-0.3-0.4-0.5-0.6l-15.3-13z"/>
			
		</g>
		
			
				<path class="st3" d="m35.5 32c-1.9-1.9-5.1-1.9-7 0l-15.5 11.5-0.5 0.5c0.7 1.2 2 1.9 3.4 1.9h32c1.5 0 2.7-0.8 3.4-1.9-0.1-0.2-0.3-0.3-0.5-0.5l-15.3-11.5z"/>
			
		
		<g class="st1">
			
				<path class="st2" d="m12.6 20.2c0.7-1.3 2-2.2 3.4-2.2h32c1.5 0 2.7 0.9 3.4 2.2-0.1 0.2-0.3 0.4-0.5 0.6l-15.4 13c-1.9 2.1-5.1 2.1-7 0l-15.9-13.6z"/>
			
		</g>
		
			
				<path class="st4" d="m28.5 32c1.9 1.9 5.1 1.9 7 0l15.5-11.5 0.5-0.5c-0.7-1.2-2-1.9-3.4-1.9h-32.1c-1.5 0-2.7 0.8-3.4 1.9 0.1 0.2 0.3 0.3 0.5 0.5l15.4 11.5z"/>
			
		
	


</svg>
