<?xml version="1.0" encoding="UTF-8"?>
<svg enable-background="new 0 0 48 48" version="1.1" viewBox="0 0 48 48" xml:space="preserve" xmlns="http://www.w3.org/2000/svg"><circle cx="24" cy="24" r="24" fill="#fff"/><g transform="matrix(.10945 0 0 .10945 -18.586 -5.8913)">
			<path class="st2" d="m456.18 229.51c20.39 14.58 44.83 22.4 69.9 22.35v-50.13c-4.93 0-9.85-0.51-14.68-1.54l-1.26 38.26c-24.55 0.45-48.6-6.96-68.63-21.15v102.3c-0.04 51.21-41.59 92.7-92.8 92.66-18.34-0.01-36.27-5.47-51.51-15.67 35.81 36.6 94.51 37.25 131.12 1.44 17.82-17.43 27.87-41.3 27.88-66.22zm18.11-50.57c-10.36-11.28-16.72-25.65-18.11-40.91v-6.45h-13.91c3.47 19.62 15.11 36.83 32.02 47.36zm-144.72 178.38c-14.15-18.67-10.49-45.27 8.17-59.42 10.98-8.32 25.32-10.8 38.45-6.63v-51.25c-4.86-0.67-9.77-0.95-14.67-0.84v39.89c-22.8-7.16-47.08 5.52-54.24 28.32-1.2 3.81-1.86 7.76-1.97 11.75 0.36 16.24 9.7 30.95 24.26 38.18z" fill="#ff004f"/>
			<path class="st3" d="m511.39 200.69v-9.85c-13.12 0.02-25.98-3.65-37.11-10.6 9.92 10.55 22.9 17.71 37.11 20.45zm-69.12-67.79c-0.33-1.91-0.59-3.83-0.77-5.76v-6.45h-50.45v200.22c-0.1 23.43-19.18 42.34-42.61 42.24-6.56-0.03-13.02-1.58-18.87-4.52 7.75 10.16 20.13 18.33 33.89 18.33 23.37 0 43.39-17.86 43.47-41.2l0.36-202.87zm-80.75 107.59v-11.36c-50.78-6.97-97.6 28.54-104.57 79.32-0.57 4.13-0.86 8.3-0.86 12.47v1.48c0.43 31.27 12.92 57.66 42.5 75.14-35.88-36.08-35.71-94.41 0.37-130.29 16.67-16.58 39.05-26.15 62.56-26.76z" fill="#00f2ea"/>
			<path d="m441.5 217.31c20.39 14.58 44.83 22.4 69.9 22.35v-39.46c-14.28-3.05-27.25-10.49-37.11-21.26-16.91-10.53-28.55-27.74-32.02-47.35h-36.54v200.22c-0.09 23.42-19.16 42.34-42.58 42.24-13.19-0.05-25.6-6.24-33.58-16.73-20.91-10.55-29.3-36.05-18.75-56.96 9.38-18.58 30.86-27.61 50.7-21.3v-39.89c-51.16 1.04-91.79 43.36-90.74 94.52 0.48 23.57 9.92 46.06 26.41 62.91 42.56 28.49 100.15 17.08 128.64-25.47 10.2-15.24 15.66-33.17 15.67-51.51z"/>
		</g></svg>
