<?xml version="1.0" encoding="UTF-8" standalone="no"?>
<svg
   enable-background="new 0 0 48 48"
   id="Layer_1"
   version="1.1"
   viewBox="0 0 48 48"
   xml:space="preserve"
   sodipodi:docname="tiktok.svg"
   inkscape:version="1.3.2 (091e20e, 2023-11-25, custom)"
   xmlns:inkscape="http://www.inkscape.org/namespaces/inkscape"
   xmlns:sodipodi="http://sodipodi.sourceforge.net/DTD/sodipodi-0.dtd"
   xmlns="http://www.w3.org/2000/svg"
   xmlns:svg="http://www.w3.org/2000/svg"><defs
     id="defs1" /><sodipodi:namedview
     id="namedview1"
     pagecolor="#505050"
     bordercolor="#ffffff"
     borderopacity="1"
     inkscape:showpageshadow="0"
     inkscape:pageopacity="0"
     inkscape:pagecheckerboard="1"
     inkscape:deskcolor="#505050"
     inkscape:zoom="8.46875"
     inkscape:cx="-2.597786"
     inkscape:cy="29.933579"
     inkscape:window-width="1920"
     inkscape:window-height="1009"
     inkscape:window-x="-8"
     inkscape:window-y="-8"
     inkscape:window-maximized="1"
     inkscape:current-layer="Layer_1" /><circle
     cx="24"
     cy="24"
     fill="#fff"
     r="24"
     id="circle1"
     inkscape:highlight-color="#ffffff"
     inkscape:label="circle1" /><g
     transform="matrix(0.1094482,0,0,0.1094482,-18.586077,-5.8912695)"
     id="g5">
			<path
   class="st2"
   d="m 456.18,229.51 c 20.39,14.58 44.83,22.4 69.9,22.35 v -50.13 c -4.93,0 -9.85,-0.51 -14.68,-1.54 l -1.26,38.26 c -24.55,0.45 -48.6,-6.96 -68.63,-21.15 v 102.3 c -0.04,51.21 -41.59,92.7 -92.8,92.66 -18.34,-0.01 -36.27,-5.47 -51.51,-15.67 35.81,36.6 94.51,37.25 131.12,1.44 17.82,-17.43 27.87,-41.3 27.88,-66.22 z m 18.11,-50.57 c -10.36,-11.28 -16.72,-25.65 -18.11,-40.91 v -6.45 h -13.91 c 3.47,19.62 15.11,36.83 32.02,47.36 z M 329.57,357.32 c -14.15,-18.67 -10.49,-45.27 8.17,-59.42 10.98,-8.32 25.32,-10.8 38.45,-6.63 v -51.25 c -4.86,-0.67 -9.77,-0.95 -14.67,-0.84 v 39.89 c -22.8,-7.16 -47.08,5.52 -54.24,28.32 -1.2,3.81 -1.86,7.76 -1.97,11.75 0.36,16.24 9.7,30.95 24.26,38.18 z"
   id="path3"
   style="fill:#ff004f" />
			<path
   class="st3"
   d="m 511.39,200.69 v -9.85 c -13.12,0.02 -25.98,-3.65 -37.11,-10.6 9.92,10.55 22.9,17.71 37.11,20.45 z M 442.27,132.9 c -0.33,-1.91 -0.59,-3.83 -0.77,-5.76 v -6.45 h -50.45 v 200.22 c -0.1,23.43 -19.18,42.34 -42.61,42.24 -6.56,-0.03 -13.02,-1.58 -18.87,-4.52 7.75,10.16 20.13,18.33 33.89,18.33 23.37,0 43.39,-17.86 43.47,-41.2 l 0.36,-202.87 z m -80.75,107.59 v -11.36 c -50.78,-6.97 -97.6,28.54 -104.57,79.32 -0.57,4.13 -0.86,8.3 -0.86,12.47 0,0.38 0,0.77 0,1.48 0.43,31.27 12.92,57.66 42.5,75.14 -35.88,-36.08 -35.71,-94.41 0.37,-130.29 16.67,-16.58 39.05,-26.15 62.56,-26.76 z"
   id="path4"
   style="fill:#00f2ea" />
			<path
   d="m 441.5,217.31 c 20.39,14.58 44.83,22.4 69.9,22.35 V 200.2 c -14.28,-3.05 -27.25,-10.49 -37.11,-21.26 -16.91,-10.53 -28.55,-27.74 -32.02,-47.35 h -36.54 v 200.22 c -0.09,23.42 -19.16,42.34 -42.58,42.24 -13.19,-0.05 -25.6,-6.24 -33.58,-16.73 -20.91,-10.55 -29.3,-36.05 -18.75,-56.96 9.38,-18.58 30.86,-27.61 50.7,-21.3 v -39.89 c -51.16,1.04 -91.79,43.36 -90.74,94.52 0.48,23.57 9.92,46.06 26.41,62.91 42.56,28.49 100.15,17.08 128.64,-25.47 10.2,-15.24 15.66,-33.17 15.67,-51.51 z"
   id="path5" />
		</g></svg>
