<?xml version="1.0" encoding="UTF-8"?>
<svg viewBox="0 0 48 48" xmlns="http://www.w3.org/2000/svg">
<rect width="48" height="48" rx="24" fill="#675DA9"/>
<path d="m35.754 12.184c-0.7939-0.7298-4.0079-3.0667-11.172-3.0987 0 0-8.4447-0.51219-12.561 3.2652-2.2921 2.292-3.0988 5.6405-3.182 9.802-0.08323 4.1551-0.19207 11.947 7.3179 14.06h0.0064l-0.0064 3.2204s-0.0448 1.3061 0.8131 1.5686c1.0372 0.3201 1.6518-0.6723 2.6442-1.7415 0.5442-0.589 1.2932-1.4469 1.863-2.1063 5.1347 0.4289 9.085-0.557 9.5331-0.7043 1.0372-0.3393 6.9082-1.0884 7.8621-8.88 0.986-8.0158-0.4802-13.093-3.1179-15.385zm0.8707 14.822c-0.8067 6.5047-5.5637 6.9145-6.4408 7.1962-0.3713 0.1216-3.8414 0.986-8.2078 0.6978 0 0-3.2524 3.9247-4.2639 4.9427-0.1601 0.16-0.3458 0.224-0.4674 0.192-0.1729-0.0448-0.2241-0.2497-0.2177-0.5506 0-0.4353 0.0256-5.3587 0.0256-5.3587-0.0064 0-0.0064 0 0 0-6.3575-1.7607-5.9862-8.3935-5.9157-11.864 0.0704-3.47 0.7234-6.3191 2.6633-8.2334 3.4765-3.1499 10.654-2.6826 10.654-2.6826 6.0566 0.0256 8.9569 1.8503 9.6292 2.4585 2.2344 1.9207 3.374 6.4984 2.5417 13.202z" fill="#fff"/>
<path d="m27.533 22.384c-0.2113 0-0.3906-0.1665-0.4034-0.3842-0.0704-1.3765-0.717-2.0487-2.0359-2.1191-0.2241-0.0128-0.397-0.2049-0.3842-0.429s0.2049-0.3969 0.429-0.3841c1.7414 0.096 2.7146 1.0948 2.8042 2.8874 0.0128 0.2241-0.16 0.4162-0.3841 0.4226-0.0128 0.0064-0.0192 0.0064-0.0256 0.0064z" fill="#fff"/>
<path d="m29.607 23.075h-0.0064c-0.2241-0.0064-0.4033-0.192-0.3969-0.4161 0.032-1.3829-0.365-2.5033-1.2101-3.4253-0.8387-0.9219-1.9975-1.4213-3.5277-1.5301-0.2241-0.0192-0.3905-0.2113-0.3713-0.4354s0.2113-0.3905 0.4354-0.3713c1.7286 0.128 3.0923 0.7298 4.0654 1.7926 0.9796 1.0692 1.4534 2.4073 1.4214 3.9887-0.0064 0.2241-0.1921 0.3969-0.4098 0.3969z" fill="#fff"/>
<path d="m31.733 23.907c-0.2241 0-0.4034-0.1793-0.4034-0.4034-0.0192-2.4777-0.7299-4.3664-2.1768-5.7813-1.4277-1.3957-3.2396-2.1064-5.3715-2.1256-0.2241 0-0.4034-0.1856-0.4034-0.4097s0.1857-0.4034 0.4034-0.4034c2.3496 0.0192 4.3471 0.8067 5.9285 2.3561 1.5878 1.5494 2.4009 3.6877 2.4265 6.3511 0.0064 0.2305-0.1729 0.4162-0.4033 0.4162 0.0064 0 0.0064 0 0 0zm-6.5432 3.4891s0.5698 0.0513 0.8771-0.3265l0.5954-0.749c0.2881-0.3714 0.986-0.6083 1.6646-0.2305 0.3778 0.2112 1.0628 0.6338 1.4854 0.9475 0.4545 0.3329 1.3765 1.1012 1.3829 1.1076 0.4417 0.3714 0.5442 0.9156 0.2433 1.4982v0.0128c-0.3074 0.5442-0.7235 1.0564-1.2421 1.5301-0.0064 0-0.0064 0.0064-0.0128 0.0064-0.429 0.3586-0.8515 0.5634-1.2613 0.6083-0.0512 0.0128-0.1088 0.0128-0.1856 0.0128-0.1793 0-0.3586-0.0256-0.5378-0.0833l-0.0128-0.0192c-0.6403-0.1792-1.7031-0.6274-3.4701-1.607-1.1524-0.6338-2.1064-1.2804-2.9195-1.9271-0.4289-0.3393-0.8643-0.717-1.3124-1.1652-0.0129-0.0128-0.0321-0.032-0.0449-0.0448l-0.0896-0.0896c-0.0128-0.0128-0.032-0.0321-0.0448-0.0449-0.4418-0.4481-0.8259-0.8835-1.1652-1.3124-0.6467-0.8067-1.2933-1.7671-1.9271-2.9195-0.9796-1.7735-1.4278-2.8362-1.607-3.4701l-0.0192-0.0128c-0.0577-0.1792-0.0833-0.3585-0.0833-0.5378 0-0.0768 0-0.1344 0.0128-0.1856 0.0513-0.4162 0.2561-0.8324 0.6083-1.2613 0-0.0064 0.0064-0.0064 0.0064-0.0128 0.4737-0.525 0.9859-0.9348 1.5301-1.2421h0.0128c0.5762-0.3009 1.1204-0.1984 1.4982 0.2433 0 0 0.7747 0.9284 1.1076 1.3829 0.3137 0.429 0.7362 1.1076 0.9475 1.4854 0.3778 0.6786 0.1409 1.3765-0.2305 1.6646l-0.749 0.5954c-0.3778 0.3073-0.3266 0.8771-0.3266 0.8771s1.1077 4.2128 5.2692 5.2691z" fill="#fff"/>
</svg>
