<?xml version="1.0" encoding="UTF-8" standalone="no"?>
<svg
   enable-background="new 0 0 48 48"
   id="Layer_1"
   version="1.1"
   viewBox="0 0 48 48"
   xml:space="preserve"
   sodipodi:docname="youtube.svg"
   inkscape:version="1.3.2 (091e20e, 2023-11-25, custom)"
   xmlns:inkscape="http://www.inkscape.org/namespaces/inkscape"
   xmlns:sodipodi="http://sodipodi.sourceforge.net/DTD/sodipodi-0.dtd"
   xmlns="http://www.w3.org/2000/svg"
   xmlns:svg="http://www.w3.org/2000/svg"><defs
     id="defs1" /><sodipodi:namedview
     id="namedview1"
     pagecolor="#505050"
     bordercolor="#ffffff"
     borderopacity="1"
     inkscape:showpageshadow="0"
     inkscape:pageopacity="0"
     inkscape:pagecheckerboard="1"
     inkscape:deskcolor="#505050"
     inkscape:zoom="16.9375"
     inkscape:cx="23.97048"
     inkscape:cy="24"
     inkscape:window-width="1920"
     inkscape:window-height="1009"
     inkscape:window-x="-8"
     inkscape:window-y="-8"
     inkscape:window-maximized="1"
     inkscape:current-layer="Layer_1" /><circle
     cx="24"
     cy="24"
     fill="#CA3737"
     r="24"
     id="circle1" /><path
     d="m 38.962311,16.652437 c 0,-0.133592 0,-0.267184 -0.133593,-0.400777 0,0 0,-0.133591 0,-0.133591 -0.400775,-1.202329 -1.469512,-2.003881 -2.805433,-2.003881 h 0.267185 c 0,0 -5.210091,-0.801553 -12.29047,-0.801553 -6.946787,0 -12.29047,0.801553 -12.29047,0.801553 h 0.267185 c -1.335921,0 -2.4046575,0.801552 -2.8054337,2.003881 0,0 0,0.133591 0,0.133591 0,0.133593 0,0.267185 -0.1335921,0.400777 C 8.9040972,17.988358 8.503321,20.793791 8.503321,24 c 0,3.206209 0.4007762,6.011642 0.5343682,7.347563 0,0.133592 0,0.267184 0.1335921,0.400777 0,0 0,0.133591 0,0.133591 0.4007762,1.202329 1.4695127,2.003881 2.8054337,2.003881 H 11.70953 c 0,0 5.210091,0.801553 12.29047,0.801553 6.946787,0 12.29047,-0.801553 12.29047,-0.801553 h -0.267185 c 1.335921,0 2.404658,-0.801552 2.805433,-2.003881 0,0 0,-0.133591 0,-0.133591 0,-0.133593 0,-0.267185 0.133593,-0.400777 0.133591,-1.335921 0.534368,-4.141354 0.534368,-7.347563 0,-3.206209 -0.267184,-6.011642 -0.534368,-7.347563 z M 28.54213,24.66796 22.263303,29.21009 c -0.133592,0.133592 -0.267184,0.133592 -0.400776,0.133592 -0.133592,0 -0.267184,0 -0.400776,-0.133592 -0.267184,-0.133592 -0.400776,-0.400776 -0.400776,-0.66796 v -9.08426 c 0,-0.267184 0.133592,-0.534368 0.400776,-0.66796 0.267184,-0.133592 0.534368,-0.133592 0.801552,0 l 6.278827,4.54213 c 0.133592,0.133592 0.267184,0.400776 0.267184,0.66796 0.133592,0.267184 0,0.534368 -0.267184,0.66796 z"
     fill="#ffffff"
     id="path1"
     style="stroke-width:1.33592" /></svg>
