<?xml version="1.0" encoding="UTF-8"?>
<svg enable-background="new 0 0 48 48" version="1.1" viewBox="0 0 48 48" xml:space="preserve" xmlns="http://www.w3.org/2000/svg"><circle cx="24" cy="24" r="24" fill="#CA3737"/><path d="m38.962 16.652c0-0.13359 0-0.26718-0.13359-0.40078v-0.13359c-0.40078-1.2023-1.4695-2.0039-2.8054-2.0039h0.26718s-5.2101-0.80155-12.29-0.80155c-6.9468 0-12.29 0.80155-12.29 0.80155h0.26718c-1.3359 0-2.4047 0.80155-2.8054 2.0039v0.13359c0 0.13359 0 0.26718-0.13359 0.40078-0.13359 1.3359-0.53437 4.1414-0.53437 7.3476s0.40078 6.0116 0.53437 7.3476c0 0.13359 0 0.26718 0.13359 0.40078v0.13359c0.40078 1.2023 1.4695 2.0039 2.8054 2.0039h-0.26718s5.2101 0.80155 12.29 0.80155c6.9468 0 12.29-0.80155 12.29-0.80155h-0.26718c1.3359 0 2.4047-0.80155 2.8054-2.0039v-0.13359c0-0.13359 0-0.26718 0.13359-0.40078 0.13359-1.3359 0.53437-4.1414 0.53437-7.3476s-0.26718-6.0116-0.53437-7.3476zm-10.42 8.0155-6.2788 4.5421c-0.13359 0.13359-0.26718 0.13359-0.40078 0.13359s-0.26718 0-0.40078-0.13359c-0.26718-0.13359-0.40078-0.40078-0.40078-0.66796v-9.0843c0-0.26718 0.13359-0.53437 0.40078-0.66796s0.53437-0.13359 0.80155 0l6.2788 4.5421c0.13359 0.13359 0.26718 0.40078 0.26718 0.66796 0.13359 0.26718 0 0.53437-0.26718 0.66796z" fill="#fff" stroke-width="1.3359"/></svg>
